<mxfile host="app.diagrams.net" modified="2021-04-30T07:12:06.655Z" agent="5.0 (Windows NT 6.1; Win64; x64) AppleWebKit/537.36 (KHTML, like Gecko) Chrome/90.0.4430.93 Safari/537.36" etag="vUEGo7BzCXtIcK3xiqAj" version="14.6.6" type="github">
  <diagram id="Xbjrep-5JKbBmMgt9TJJ" name="Page-1">
    <mxGraphModel dx="1019" dy="555" grid="1" gridSize="10" guides="1" tooltips="1" connect="1" arrows="1" fold="1" page="1" pageScale="1" pageWidth="1169" pageHeight="827" math="0" shadow="0">
      <root>
        <mxCell id="0" />
        <mxCell id="1" parent="0" />
        <mxCell id="1Ecb4Kxpxx0fhSs5LFk1-11" style="edgeStyle=orthogonalEdgeStyle;rounded=0;orthogonalLoop=1;jettySize=auto;html=1;" edge="1" parent="1" source="1Ecb4Kxpxx0fhSs5LFk1-2">
          <mxGeometry relative="1" as="geometry">
            <mxPoint x="510" y="90" as="targetPoint" />
          </mxGeometry>
        </mxCell>
        <mxCell id="1Ecb4Kxpxx0fhSs5LFk1-19" style="edgeStyle=orthogonalEdgeStyle;rounded=0;orthogonalLoop=1;jettySize=auto;html=1;entryX=0;entryY=0.75;entryDx=0;entryDy=0;" edge="1" parent="1" source="1Ecb4Kxpxx0fhSs5LFk1-2" target="1Ecb4Kxpxx0fhSs5LFk1-18">
          <mxGeometry relative="1" as="geometry">
            <Array as="points">
              <mxPoint x="330" y="90" />
              <mxPoint x="330" y="365" />
              <mxPoint x="520" y="365" />
            </Array>
          </mxGeometry>
        </mxCell>
        <mxCell id="1Ecb4Kxpxx0fhSs5LFk1-2" value="&lt;b&gt;&lt;font face=&quot;Times New Roman&quot; style=&quot;font-size: 15px&quot;&gt;ADMIN&lt;/font&gt;&lt;/b&gt;" style="rounded=0;whiteSpace=wrap;html=1;" vertex="1" parent="1">
          <mxGeometry x="80" y="60" width="120" height="60" as="geometry" />
        </mxCell>
        <mxCell id="1Ecb4Kxpxx0fhSs5LFk1-3" value="" style="rounded=0;whiteSpace=wrap;html=1;" vertex="1" parent="1">
          <mxGeometry x="80" y="190" width="120" height="60" as="geometry" />
        </mxCell>
        <mxCell id="1Ecb4Kxpxx0fhSs5LFk1-4" value="" style="rounded=0;whiteSpace=wrap;html=1;" vertex="1" parent="1">
          <mxGeometry x="80" y="320" width="120" height="60" as="geometry" />
        </mxCell>
        <mxCell id="1Ecb4Kxpxx0fhSs5LFk1-12" style="edgeStyle=orthogonalEdgeStyle;rounded=0;orthogonalLoop=1;jettySize=auto;html=1;entryX=0.427;entryY=1.008;entryDx=0;entryDy=0;entryPerimeter=0;" edge="1" parent="1" source="1Ecb4Kxpxx0fhSs5LFk1-6" target="1Ecb4Kxpxx0fhSs5LFk1-8">
          <mxGeometry relative="1" as="geometry" />
        </mxCell>
        <mxCell id="1Ecb4Kxpxx0fhSs5LFk1-6" value="&lt;b&gt;&lt;font face=&quot;Times New Roman&quot; style=&quot;font-size: 14px&quot;&gt;MAHASISWA&lt;/font&gt;&lt;/b&gt;" style="text;html=1;strokeColor=none;fillColor=none;align=center;verticalAlign=middle;whiteSpace=wrap;rounded=0;" vertex="1" parent="1">
          <mxGeometry x="85" y="200" width="110" height="40" as="geometry" />
        </mxCell>
        <mxCell id="1Ecb4Kxpxx0fhSs5LFk1-13" style="edgeStyle=orthogonalEdgeStyle;rounded=0;orthogonalLoop=1;jettySize=auto;html=1;entryX=0;entryY=0.5;entryDx=0;entryDy=0;" edge="1" parent="1" source="1Ecb4Kxpxx0fhSs5LFk1-7" target="1Ecb4Kxpxx0fhSs5LFk1-10">
          <mxGeometry relative="1" as="geometry">
            <Array as="points">
              <mxPoint x="358" y="350" />
              <mxPoint x="358" y="115" />
            </Array>
          </mxGeometry>
        </mxCell>
        <mxCell id="1Ecb4Kxpxx0fhSs5LFk1-7" value="&lt;b&gt;&lt;font face=&quot;Times New Roman&quot; style=&quot;font-size: 14px&quot;&gt;DOSEN&lt;/font&gt;&lt;/b&gt;" style="text;html=1;strokeColor=none;fillColor=none;align=center;verticalAlign=middle;whiteSpace=wrap;rounded=0;" vertex="1" parent="1">
          <mxGeometry x="85" y="330" width="110" height="40" as="geometry" />
        </mxCell>
        <mxCell id="1Ecb4Kxpxx0fhSs5LFk1-8" value="" style="ellipse;whiteSpace=wrap;html=1;aspect=fixed;" vertex="1" parent="1">
          <mxGeometry x="520" y="60" width="110" height="110" as="geometry" />
        </mxCell>
        <mxCell id="1Ecb4Kxpxx0fhSs5LFk1-10" value="&lt;b&gt;&lt;font face=&quot;Times New Roman&quot; style=&quot;font-size: 14px&quot;&gt;LOGIN&lt;/font&gt;&lt;/b&gt;" style="text;html=1;strokeColor=none;fillColor=none;align=center;verticalAlign=middle;whiteSpace=wrap;rounded=0;" vertex="1" parent="1">
          <mxGeometry x="520" y="95" width="110" height="40" as="geometry" />
        </mxCell>
        <mxCell id="1Ecb4Kxpxx0fhSs5LFk1-14" value="&lt;font face=&quot;Times New Roman&quot;&gt;&lt;span style=&quot;font-size: 14px&quot;&gt;&lt;b&gt;Data Admin&lt;/b&gt;&lt;/span&gt;&lt;/font&gt;" style="text;html=1;strokeColor=none;fillColor=none;align=center;verticalAlign=middle;whiteSpace=wrap;rounded=0;" vertex="1" parent="1">
          <mxGeometry x="290" y="60" width="110" height="40" as="geometry" />
        </mxCell>
        <mxCell id="1Ecb4Kxpxx0fhSs5LFk1-15" value="&lt;font face=&quot;Times New Roman&quot;&gt;&lt;span style=&quot;font-size: 14px&quot;&gt;&lt;b&gt;Data dosen&lt;/b&gt;&lt;/span&gt;&lt;/font&gt;" style="text;html=1;strokeColor=none;fillColor=none;align=center;verticalAlign=middle;whiteSpace=wrap;rounded=0;" vertex="1" parent="1">
          <mxGeometry x="220" y="320" width="110" height="40" as="geometry" />
        </mxCell>
        <mxCell id="1Ecb4Kxpxx0fhSs5LFk1-16" value="&lt;font face=&quot;Times New Roman&quot;&gt;&lt;span style=&quot;font-size: 14px&quot;&gt;&lt;b&gt;Data Mahasiswa&lt;/b&gt;&lt;/span&gt;&lt;/font&gt;" style="text;html=1;strokeColor=none;fillColor=none;align=center;verticalAlign=middle;whiteSpace=wrap;rounded=0;" vertex="1" parent="1">
          <mxGeometry x="220" y="190" width="110" height="40" as="geometry" />
        </mxCell>
        <mxCell id="1Ecb4Kxpxx0fhSs5LFk1-23" style="edgeStyle=orthogonalEdgeStyle;rounded=0;orthogonalLoop=1;jettySize=auto;html=1;entryX=0.5;entryY=1;entryDx=0;entryDy=0;" edge="1" parent="1" source="1Ecb4Kxpxx0fhSs5LFk1-17" target="1Ecb4Kxpxx0fhSs5LFk1-4">
          <mxGeometry relative="1" as="geometry">
            <Array as="points">
              <mxPoint x="575" y="440" />
              <mxPoint x="140" y="440" />
            </Array>
          </mxGeometry>
        </mxCell>
        <mxCell id="1Ecb4Kxpxx0fhSs5LFk1-17" value="" style="ellipse;whiteSpace=wrap;html=1;aspect=fixed;" vertex="1" parent="1">
          <mxGeometry x="520" y="310" width="110" height="110" as="geometry" />
        </mxCell>
        <mxCell id="1Ecb4Kxpxx0fhSs5LFk1-36" style="edgeStyle=orthogonalEdgeStyle;rounded=0;orthogonalLoop=1;jettySize=auto;html=1;entryX=0;entryY=0.5;entryDx=0;entryDy=0;" edge="1" parent="1" source="1Ecb4Kxpxx0fhSs5LFk1-18" target="1Ecb4Kxpxx0fhSs5LFk1-35">
          <mxGeometry relative="1" as="geometry" />
        </mxCell>
        <mxCell id="1Ecb4Kxpxx0fhSs5LFk1-18" value="&lt;b&gt;&lt;font face=&quot;Times New Roman&quot; style=&quot;font-size: 14px&quot;&gt;DATA MASTER&lt;/font&gt;&lt;/b&gt;" style="text;html=1;strokeColor=none;fillColor=none;align=center;verticalAlign=middle;whiteSpace=wrap;rounded=0;" vertex="1" parent="1">
          <mxGeometry x="520" y="345" width="110" height="40" as="geometry" />
        </mxCell>
        <mxCell id="1Ecb4Kxpxx0fhSs5LFk1-20" value="&lt;font face=&quot;Times New Roman&quot;&gt;&lt;span style=&quot;font-size: 14px&quot;&gt;&lt;b&gt;Data Matkul&lt;/b&gt;&lt;/span&gt;&lt;/font&gt;" style="text;html=1;strokeColor=none;fillColor=none;align=center;verticalAlign=middle;whiteSpace=wrap;rounded=0;" vertex="1" parent="1">
          <mxGeometry x="380" y="330" width="110" height="40" as="geometry" />
        </mxCell>
        <mxCell id="1Ecb4Kxpxx0fhSs5LFk1-21" value="&lt;font face=&quot;Times New Roman&quot;&gt;&lt;span style=&quot;font-size: 14px&quot;&gt;&lt;b&gt;Data Ruangan&lt;/b&gt;&lt;/span&gt;&lt;/font&gt;" style="text;html=1;strokeColor=none;fillColor=none;align=center;verticalAlign=middle;whiteSpace=wrap;rounded=0;" vertex="1" parent="1">
          <mxGeometry x="380" y="360" width="110" height="40" as="geometry" />
        </mxCell>
        <mxCell id="1Ecb4Kxpxx0fhSs5LFk1-24" value="&lt;font face=&quot;Times New Roman&quot;&gt;&lt;span style=&quot;font-size: 14px&quot;&gt;&lt;b&gt;Info Ruangan&lt;/b&gt;&lt;/span&gt;&lt;/font&gt;" style="text;html=1;strokeColor=none;fillColor=none;align=center;verticalAlign=middle;whiteSpace=wrap;rounded=0;" vertex="1" parent="1">
          <mxGeometry x="195" y="410" width="110" height="40" as="geometry" />
        </mxCell>
        <mxCell id="1Ecb4Kxpxx0fhSs5LFk1-25" value="&lt;font face=&quot;Times New Roman&quot;&gt;&lt;span style=&quot;font-size: 14px&quot;&gt;&lt;b&gt;Info Matkul&lt;/b&gt;&lt;/span&gt;&lt;/font&gt;" style="text;html=1;strokeColor=none;fillColor=none;align=center;verticalAlign=middle;whiteSpace=wrap;rounded=0;" vertex="1" parent="1">
          <mxGeometry x="195" y="430" width="110" height="40" as="geometry" />
        </mxCell>
        <mxCell id="1Ecb4Kxpxx0fhSs5LFk1-26" value="&lt;font face=&quot;Times New Roman&quot;&gt;&lt;span style=&quot;font-size: 14px&quot;&gt;&lt;b&gt;Info Mahasiswa&lt;/b&gt;&lt;/span&gt;&lt;/font&gt;" style="text;html=1;strokeColor=none;fillColor=none;align=center;verticalAlign=middle;whiteSpace=wrap;rounded=0;" vertex="1" parent="1">
          <mxGeometry x="330" y="410" width="110" height="40" as="geometry" />
        </mxCell>
        <mxCell id="1Ecb4Kxpxx0fhSs5LFk1-31" style="edgeStyle=orthogonalEdgeStyle;rounded=0;orthogonalLoop=1;jettySize=auto;html=1;entryX=0;entryY=0.5;entryDx=0;entryDy=0;" edge="1" parent="1" source="1Ecb4Kxpxx0fhSs5LFk1-28" target="1Ecb4Kxpxx0fhSs5LFk1-3">
          <mxGeometry relative="1" as="geometry">
            <Array as="points">
              <mxPoint x="575" y="680" />
              <mxPoint x="60" y="680" />
              <mxPoint x="60" y="220" />
            </Array>
          </mxGeometry>
        </mxCell>
        <mxCell id="1Ecb4Kxpxx0fhSs5LFk1-28" value="" style="ellipse;whiteSpace=wrap;html=1;aspect=fixed;" vertex="1" parent="1">
          <mxGeometry x="520" y="540" width="110" height="110" as="geometry" />
        </mxCell>
        <mxCell id="1Ecb4Kxpxx0fhSs5LFk1-30" style="edgeStyle=orthogonalEdgeStyle;rounded=0;orthogonalLoop=1;jettySize=auto;html=1;entryX=0.25;entryY=1;entryDx=0;entryDy=0;" edge="1" parent="1" source="1Ecb4Kxpxx0fhSs5LFk1-29" target="1Ecb4Kxpxx0fhSs5LFk1-4">
          <mxGeometry relative="1" as="geometry" />
        </mxCell>
        <mxCell id="1Ecb4Kxpxx0fhSs5LFk1-37" style="edgeStyle=orthogonalEdgeStyle;rounded=0;orthogonalLoop=1;jettySize=auto;html=1;entryX=0.5;entryY=1;entryDx=0;entryDy=0;" edge="1" parent="1" source="1Ecb4Kxpxx0fhSs5LFk1-29" target="1Ecb4Kxpxx0fhSs5LFk1-34">
          <mxGeometry relative="1" as="geometry" />
        </mxCell>
        <mxCell id="1Ecb4Kxpxx0fhSs5LFk1-29" value="&lt;b&gt;&lt;font face=&quot;Times New Roman&quot; style=&quot;font-size: 14px&quot;&gt;KRS&lt;/font&gt;&lt;/b&gt;" style="text;html=1;strokeColor=none;fillColor=none;align=center;verticalAlign=middle;whiteSpace=wrap;rounded=0;" vertex="1" parent="1">
          <mxGeometry x="520" y="575" width="110" height="40" as="geometry" />
        </mxCell>
        <mxCell id="1Ecb4Kxpxx0fhSs5LFk1-32" value="&lt;font face=&quot;Times New Roman&quot;&gt;&lt;span style=&quot;font-size: 14px&quot;&gt;&lt;b&gt;Info KRS&lt;/b&gt;&lt;/span&gt;&lt;/font&gt;" style="text;html=1;strokeColor=none;fillColor=none;align=center;verticalAlign=middle;whiteSpace=wrap;rounded=0;" vertex="1" parent="1">
          <mxGeometry x="190" y="560" width="110" height="40" as="geometry" />
        </mxCell>
        <mxCell id="1Ecb4Kxpxx0fhSs5LFk1-33" value="&lt;font face=&quot;Times New Roman&quot;&gt;&lt;span style=&quot;font-size: 14px&quot;&gt;&lt;b&gt;Info KRS&lt;/b&gt;&lt;/span&gt;&lt;/font&gt;" style="text;html=1;strokeColor=none;fillColor=none;align=center;verticalAlign=middle;whiteSpace=wrap;rounded=0;" vertex="1" parent="1">
          <mxGeometry x="180" y="650" width="110" height="40" as="geometry" />
        </mxCell>
        <mxCell id="1Ecb4Kxpxx0fhSs5LFk1-38" style="edgeStyle=orthogonalEdgeStyle;rounded=0;orthogonalLoop=1;jettySize=auto;html=1;entryX=0.447;entryY=-0.003;entryDx=0;entryDy=0;entryPerimeter=0;" edge="1" parent="1" source="1Ecb4Kxpxx0fhSs5LFk1-34" target="1Ecb4Kxpxx0fhSs5LFk1-2">
          <mxGeometry relative="1" as="geometry">
            <Array as="points">
              <mxPoint x="865" y="40" />
              <mxPoint x="134" y="40" />
            </Array>
          </mxGeometry>
        </mxCell>
        <mxCell id="1Ecb4Kxpxx0fhSs5LFk1-34" value="" style="ellipse;whiteSpace=wrap;html=1;aspect=fixed;" vertex="1" parent="1">
          <mxGeometry x="810" y="310" width="110" height="110" as="geometry" />
        </mxCell>
        <mxCell id="1Ecb4Kxpxx0fhSs5LFk1-35" value="&lt;font face=&quot;Times New Roman&quot;&gt;&lt;span style=&quot;font-size: 14px&quot;&gt;&lt;b&gt;LAPORAN&lt;/b&gt;&lt;/span&gt;&lt;/font&gt;" style="text;html=1;strokeColor=none;fillColor=none;align=center;verticalAlign=middle;whiteSpace=wrap;rounded=0;" vertex="1" parent="1">
          <mxGeometry x="810" y="345" width="110" height="40" as="geometry" />
        </mxCell>
        <mxCell id="1Ecb4Kxpxx0fhSs5LFk1-39" value="&lt;font face=&quot;Times New Roman&quot;&gt;&lt;span style=&quot;font-size: 14px&quot;&gt;&lt;b&gt;Data Master&lt;/b&gt;&lt;/span&gt;&lt;/font&gt;" style="text;html=1;strokeColor=none;fillColor=none;align=center;verticalAlign=middle;whiteSpace=wrap;rounded=0;" vertex="1" parent="1">
          <mxGeometry x="670" y="330" width="110" height="40" as="geometry" />
        </mxCell>
        <mxCell id="1Ecb4Kxpxx0fhSs5LFk1-40" value="&lt;font face=&quot;Times New Roman&quot;&gt;&lt;span style=&quot;font-size: 14px&quot;&gt;&lt;b&gt;Info KRS&lt;/b&gt;&lt;/span&gt;&lt;/font&gt;" style="text;html=1;strokeColor=none;fillColor=none;align=center;verticalAlign=middle;whiteSpace=wrap;rounded=0;" vertex="1" parent="1">
          <mxGeometry x="690" y="560" width="110" height="40" as="geometry" />
        </mxCell>
        <mxCell id="1Ecb4Kxpxx0fhSs5LFk1-41" value="&lt;font face=&quot;Times New Roman&quot;&gt;&lt;span style=&quot;font-size: 14px&quot;&gt;&lt;b&gt;Info Laporan&lt;/b&gt;&lt;/span&gt;&lt;/font&gt;" style="text;html=1;strokeColor=none;fillColor=none;align=center;verticalAlign=middle;whiteSpace=wrap;rounded=0;" vertex="1" parent="1">
          <mxGeometry x="690" y="10" width="110" height="40" as="geometry" />
        </mxCell>
      </root>
    </mxGraphModel>
  </diagram>
</mxfile>
